<svg width="44" height="44" viewBox="0 0 44 44" fill="none" xmlns="http://www.w3.org/2000/svg">
<path d="M15.1249 33.1649C16.6389 31.4638 17.7877 29.4703 18.5005 27.3074C19.0579 25.6148 19.3411 23.8439 19.3393 22.0618C19.3438 21.4266 19.5852 20.8158 20.0163 20.3492C20.4473 19.8825 21.037 19.5935 21.6699 19.5387C22.0182 19.5124 22.3681 19.5577 22.6982 19.6718C23.0283 19.7858 23.3315 19.9663 23.5891 20.2021C23.8468 20.4379 24.0534 20.7239 24.1963 21.0425C24.3392 21.3612 24.4153 21.7058 24.4199 22.0549C24.4194 23.2456 24.3229 24.4342 24.1312 25.6093C24.1035 25.7888 24.1479 25.972 24.2548 26.1189C24.3618 26.2657 24.5225 26.3643 24.7018 26.3931H24.8118C24.9766 26.3952 25.1367 26.3381 25.2629 26.2321C25.3891 26.126 25.473 25.9782 25.4993 25.8156C25.6996 24.5697 25.8008 23.3099 25.8018 22.0481C25.7982 21.0111 25.3837 20.0179 24.6492 19.286C23.9147 18.5541 22.92 18.1431 21.883 18.1431C21.7799 18.1431 21.6768 18.1431 21.5737 18.1431C20.5973 18.227 19.6874 18.6725 19.0222 19.3923C18.3571 20.1121 17.9848 21.0543 17.978 22.0343C17.9786 23.6692 17.7186 25.2938 17.208 26.8468C16.8839 27.8493 16.4505 28.8129 15.9155 29.7206C15.4038 30.6151 14.8001 31.4538 14.1143 32.2231C13.406 33.0211 12.6155 33.7424 11.7562 34.3749C10.8799 35.0361 9.93484 35.6008 8.93742 36.0593C8.85457 36.0964 8.77984 36.1497 8.71762 36.2158C8.6554 36.282 8.60687 36.3598 8.57497 36.4449C8.543 36.5298 8.52815 36.6204 8.53138 36.7111C8.53461 36.802 8.55578 36.8912 8.59367 36.9737C8.64942 37.0941 8.7388 37.1958 8.851 37.2666C8.9632 37.3373 9.09355 37.3741 9.22617 37.3724C9.32345 37.372 9.41956 37.3509 9.50804 37.3106C10.5977 36.8167 11.6305 36.2059 12.588 35.4887C13.5124 34.8046 14.3626 34.0258 15.1249 33.1649Z" fill="#003092"/>
<path d="M18.0882 34.6363C18.8184 33.7299 19.4715 32.764 20.0407 31.7488C20.5885 30.7548 21.0486 29.7151 21.4157 28.6413C21.7948 27.5831 22.0756 26.4922 22.2544 25.3825C22.4458 24.286 22.5401 23.1749 22.5363 22.0619C22.5363 21.8795 22.4638 21.7047 22.3349 21.5758C22.206 21.4468 22.0311 21.3744 21.8488 21.3744C21.6665 21.3744 21.4916 21.4468 21.3627 21.5758C21.2337 21.7047 21.1613 21.8795 21.1613 22.0619C21.1648 23.0988 21.0774 24.134 20.9001 25.1556C20.7402 26.1877 20.4847 27.2027 20.1369 28.1875C19.7906 29.1912 19.3558 30.1621 18.8376 31.0888C18.3102 32.0349 17.703 32.9342 17.0226 33.7769C16.315 34.648 15.5279 35.4513 14.6713 36.1763C13.7932 36.9393 12.8422 37.614 11.8319 38.1906C11.7 38.2654 11.5965 38.3816 11.5375 38.5213C11.4786 38.661 11.4674 38.8163 11.5058 38.963C11.5443 39.1097 11.6301 39.2396 11.75 39.3324C11.8699 39.4252 12.0171 39.4758 12.1688 39.4763C12.2888 39.4734 12.4064 39.4428 12.5126 39.3869C13.5977 38.7655 14.62 38.0401 15.5651 37.2213C16.486 36.4414 17.3309 35.5759 18.0882 34.6363Z" fill="#003092"/>
<path d="M21.622 35.2962C22.2461 34.409 22.8023 33.4759 23.2858 32.505C23.337 32.4237 23.3707 32.3327 23.3847 32.2377C23.3986 32.1427 23.3925 32.0457 23.3667 31.9533C23.3409 31.8607 23.296 31.7747 23.2349 31.7005C23.1738 31.6264 23.0978 31.5659 23.0119 31.523C22.926 31.4801 22.8321 31.4556 22.7361 31.4512C22.6402 31.4467 22.5444 31.4625 22.4549 31.4973C22.3654 31.5322 22.2842 31.5855 22.2166 31.6536C22.1488 31.7218 22.0962 31.8033 22.062 31.8931C21.6019 32.8021 21.0781 33.6774 20.4945 34.5125C19.7901 35.5219 19.0037 36.4716 18.1433 37.3519C17.2584 38.2493 16.2995 39.0703 15.2764 39.8062C15.159 39.8912 15.0715 40.0111 15.0263 40.1487C14.9812 40.2865 14.9806 40.4349 15.0248 40.5729C15.0691 40.7109 15.1558 40.8314 15.2725 40.9172C15.3893 41.003 15.5303 41.0496 15.6751 41.0506C15.8196 41.0501 15.9607 41.007 16.0808 40.9269C17.1682 40.1439 18.1871 39.2699 19.1264 38.3144C20.0407 37.3794 20.8755 36.3698 21.622 35.2962Z" fill="#003092"/>
<path d="M24.427 35.6744C24.2754 35.5749 24.0906 35.5393 23.913 35.5754C23.7353 35.6115 23.579 35.7162 23.4782 35.8669C23.0451 36.5132 22.5982 37.1319 22.1032 37.7094C21.23 38.7994 20.2639 39.8115 19.2157 40.7344C19.147 40.7942 19.0909 40.8669 19.0506 40.9484C19.0103 41.0301 18.9866 41.1188 18.9808 41.2096C18.9751 41.3004 18.9874 41.3915 19.0171 41.4775C19.0468 41.5635 19.0933 41.6428 19.1538 41.7107C19.2189 41.7827 19.2985 41.8403 19.3873 41.8793C19.4762 41.9184 19.5724 41.9383 19.6695 41.9376C19.8357 41.9392 19.9968 41.8806 20.1232 41.7726C21.2299 40.7933 22.2511 39.7215 23.1757 38.5688C23.6638 37.9638 24.1451 37.3107 24.592 36.6301C24.6963 36.4813 24.7376 36.2972 24.7066 36.1182C24.6757 35.9391 24.5752 35.7795 24.427 35.6744Z" fill="#003092"/>
<path d="M12.6843 31.0269C13.4756 30.1381 14.1459 29.1487 14.6781 28.0844C15.5988 26.2088 16.0696 24.1443 16.0531 22.055C16.0514 21.1927 16.2455 20.3413 16.6206 19.5648C16.9958 18.7884 17.5421 18.1072 18.2187 17.5725C18.986 16.9638 19.8937 16.5573 20.8587 16.39C21.9196 16.2029 23.0119 16.3221 24.0074 16.7338C25.0254 17.1439 25.9045 17.8371 26.5405 18.7315C27.1766 19.6259 27.543 20.6838 27.5962 21.78C27.5962 21.8694 27.5962 21.9657 27.5962 22.055C27.5962 22.1444 27.5962 22.2475 27.5962 22.385C27.5962 22.5225 27.5962 22.7563 27.5962 22.935V23.2238C27.5962 23.4061 27.6686 23.581 27.7976 23.7099C27.9265 23.8388 28.1014 23.9113 28.2837 23.9113C28.466 23.9113 28.6409 23.8388 28.7698 23.7099C28.8988 23.581 28.9712 23.4061 28.9712 23.2238V22.9419C28.9712 22.7494 28.9712 22.55 28.9712 22.3988C28.9712 22.2475 28.9712 22.1513 28.9712 22.0207C28.9712 21.89 28.9712 21.7732 28.9712 21.67C28.9013 20.3139 28.4454 19.006 27.6574 17.9001C26.8694 16.7942 25.782 15.9364 24.5231 15.4275C23.668 15.0772 22.7521 14.8996 21.8281 14.905C21.4297 14.9048 21.0319 14.937 20.6387 15.0013C19.4502 15.2198 18.3362 15.7353 17.4006 16.5C16.5618 17.1642 15.8843 18.0095 15.4188 18.9727C14.9532 19.9359 14.7117 20.9921 14.7124 22.0619C14.721 23.9485 14.2878 25.8109 13.4474 27.5C12.9766 28.4456 12.385 29.3261 11.6874 30.1194C11.0113 30.8863 10.2396 31.5633 9.39118 32.1338C8.51269 32.7272 7.56051 33.2033 6.5587 33.55C6.37637 33.5801 6.21345 33.6814 6.10579 33.8316C5.99814 33.9818 5.95456 34.1686 5.98464 34.351C6.01473 34.5333 6.11601 34.6962 6.26622 34.8039C6.41642 34.9116 6.60325 34.9551 6.78558 34.925C6.86299 34.9241 6.93969 34.9102 7.01243 34.8838C8.1136 34.4942 9.16025 33.9651 10.1268 33.3094C11.0752 32.6634 11.935 31.896 12.6843 31.0269Z" fill="#003092"/>
<path d="M25.7538 38.2525C25.149 39.1292 24.49 39.9673 23.7807 40.7619C23.7202 40.8298 23.6737 40.909 23.644 40.9951C23.6143 41.0811 23.602 41.1722 23.6077 41.263C23.6135 41.3537 23.6372 41.4425 23.6775 41.5241C23.7178 41.6057 23.7739 41.6784 23.8426 41.7382C23.9679 41.8487 24.1292 41.9098 24.2963 41.91C24.394 41.9099 24.4904 41.889 24.5793 41.8487C24.6682 41.8084 24.7476 41.7496 24.812 41.6763C25.551 40.8354 26.2397 39.9516 26.8745 39.0294C26.9775 38.8789 27.0165 38.6938 26.983 38.5146C26.9495 38.3353 26.8461 38.1768 26.6957 38.0738C26.5463 37.9751 26.3643 37.9385 26.1885 37.9719C26.0126 38.0053 25.8566 38.106 25.7538 38.2525Z" fill="#003092"/>
<path d="M10.8281 28.1875C12.1526 26.4181 12.8646 24.2652 12.8562 22.055C12.8633 20.5796 13.2324 19.1285 13.9313 17.8291C14.6301 16.5298 15.6373 15.4218 16.8643 14.6025C17.7047 14.0396 18.6345 13.6235 19.6143 13.3719C20.3479 13.1755 21.1031 13.0716 21.8624 13.0625C22.2003 13.0593 22.538 13.08 22.8731 13.1244C25.0742 13.3651 27.1089 14.4108 28.586 16.0605C30.0631 17.7102 30.8785 19.8475 30.8756 22.0619C30.8756 22.2544 30.8756 22.44 30.8756 22.6256C30.8692 22.808 30.9354 22.9854 31.0599 23.1188C31.1843 23.2523 31.3566 23.3308 31.539 23.3372C31.7213 23.3436 31.8987 23.2772 32.0321 23.1529C32.1656 23.0284 32.2442 22.8561 32.2506 22.6738C32.2506 22.4744 32.2506 22.275 32.2506 22.0619C32.2413 19.5181 31.2977 17.0664 29.5992 15.1728C27.9008 13.2791 25.5658 12.0755 23.0381 11.7906C22.6487 11.7319 22.256 11.6975 21.8624 11.6875C19.8118 11.689 17.8075 12.2966 16.1012 13.4338C15.0951 14.0957 14.2169 14.9342 13.5093 15.9088C12.1857 17.6734 11.4737 19.8216 11.4812 22.0275C11.4771 23.5036 11.1101 24.9562 10.4123 26.257C9.71451 27.5578 8.70746 28.667 7.47993 29.4869C6.63886 30.0502 5.70929 30.4685 4.7299 30.7244C4.54756 30.7472 4.38175 30.8415 4.26893 30.9865C4.15612 31.1316 4.10554 31.3155 4.12834 31.4978C4.15113 31.6801 4.24542 31.846 4.39047 31.9588C4.53552 32.0716 4.71944 32.1222 4.90178 32.0994C4.95887 32.1061 5.01656 32.1061 5.07365 32.0994C6.20578 31.8028 7.27966 31.3169 8.24993 30.6625C9.24976 29.9976 10.1228 29.1594 10.8281 28.1875Z" fill="#003092"/>
<path d="M9.62511 22.055C9.62043 20.1791 10.0561 18.3282 10.897 16.6513C11.3748 15.6927 11.9757 14.8006 12.6845 13.9975C13.3605 13.2306 14.1323 12.5536 14.9807 11.9832C16.8032 10.7484 18.9286 10.0353 21.127 9.92066C21.3713 9.8955 21.6169 9.88402 21.8625 9.88629C24.5386 9.8832 27.142 10.7574 29.2739 12.375C30.7747 13.5067 31.9911 14.9727 32.8265 16.6566C33.6619 18.3405 34.0933 20.196 34.0864 22.0757C34.0864 22.4744 34.0864 22.8663 34.0864 23.2582C34.0763 23.4405 34.1391 23.6194 34.261 23.7554C34.3828 23.8914 34.5537 23.9734 34.736 23.9835C34.9184 23.9935 35.0972 23.9307 35.2332 23.8089C35.3692 23.687 35.4513 23.5161 35.4614 23.3338C35.4614 22.9144 35.4614 22.495 35.4614 22.0757C35.4664 19.9816 34.9824 17.9153 34.0478 16.0414C33.1132 14.1675 31.7539 12.5377 30.0782 11.2819C27.7014 9.49056 24.8044 8.5249 21.8282 8.53191C21.5481 8.53088 21.2681 8.5447 20.9895 8.57316C18.5503 8.70771 16.1943 9.50651 14.1764 10.8832C13.2596 11.5037 12.4236 12.2358 11.6876 13.0625C10.9008 13.9558 10.2329 14.9472 9.70073 16.0119C8.74758 17.8838 8.25052 19.9545 8.25011 22.055C8.25176 22.9193 8.05781 23.7728 7.68278 24.5515C7.30775 25.3302 6.76131 26.0138 6.08445 26.5513C5.31426 27.1595 4.40449 27.5659 3.43757 27.7338C3.25524 27.7493 3.08653 27.8366 2.96855 27.9765C2.85058 28.1164 2.79301 28.2974 2.80851 28.4797C2.82401 28.6621 2.91131 28.8308 3.0512 28.9487C3.19109 29.0667 3.37212 29.1243 3.55445 29.1088H3.67132C4.86644 28.9028 5.99126 28.4018 6.94386 27.6513C7.78474 26.9819 8.46289 26.1305 8.9273 25.1612C9.3917 24.1919 9.63033 23.1299 9.62511 22.055Z" fill="#003092"/>
<path d="M6.39373 22.055C6.39274 20.42 6.65267 18.7954 7.16372 17.2425C7.48795 16.2422 7.92141 15.2808 8.45622 14.3756C8.96765 13.4808 9.57141 12.6421 10.2575 11.8731C11.6904 10.2545 13.4469 8.95454 15.4137 8.05749C18.0874 6.83927 21.0518 6.40451 23.9628 6.80366C26.8737 7.20278 29.6116 8.41952 31.8587 10.3125L31.9275 10.3812C33.6234 11.82 34.9859 13.6107 35.9202 15.6289C36.8546 17.6472 37.3384 19.8447 37.3381 22.0687C37.3381 23.1412 37.29 24.2344 37.1868 25.3275C37.1696 25.5088 37.2251 25.6897 37.3411 25.8302C37.4572 25.9707 37.6242 26.0594 37.8056 26.0769H37.8675C38.0396 26.0775 38.2057 26.0137 38.333 25.8978C38.4603 25.782 38.5395 25.6226 38.555 25.4512C38.6581 24.3169 38.7131 23.1756 38.7131 22.0619C38.7141 19.6514 38.1929 17.2694 37.1853 15.0797C36.1777 12.8901 34.7076 10.9446 32.8762 9.37748L32.8143 9.30873C31.246 7.96756 29.4447 6.92593 27.5 6.23558C23.373 4.78202 18.843 4.98659 14.8637 6.8062C13.7731 7.3024 12.7383 7.91311 11.7768 8.62811C10.858 9.31623 10.0125 10.0972 9.25372 10.9587C8.50166 11.8022 7.84242 12.7242 7.28747 13.7087C6.70827 14.6986 6.23583 15.7472 5.8781 16.8369C5.31492 18.5192 5.02479 20.2808 5.01873 22.055C5.01596 22.6914 4.77533 23.3038 4.3441 23.7719C3.91287 24.2401 3.3222 24.5301 2.6881 24.5849C2.50577 24.5996 2.33669 24.686 2.21808 24.8252C2.09946 24.9645 2.04102 25.1451 2.0556 25.3275C2.07019 25.5098 2.15662 25.6789 2.29586 25.7975C2.4351 25.9161 2.61577 25.9746 2.7981 25.9599C3.77631 25.8743 4.68726 25.4263 5.35239 24.704C6.01753 23.9816 6.38891 23.0369 6.39373 22.055Z" fill="#003092"/>
<path d="M2.63312 19.5318C2.72354 19.5486 2.8164 19.547 2.90621 19.5271C2.996 19.5073 3.08091 19.4697 3.15591 19.4165C3.23091 19.3633 3.29448 19.2956 3.34284 19.2174C3.39121 19.1391 3.4234 19.052 3.4375 18.9612C3.60389 17.9313 3.86393 16.9188 4.21437 15.9362C4.56027 14.9434 4.99038 13.982 5.5 13.0624C6.02559 12.1137 6.63533 11.214 7.32187 10.3743C8.02512 9.5017 8.81017 8.69822 9.66625 7.9749C10.5482 7.20861 11.5039 6.53156 12.5194 5.95369C14.7452 4.65559 17.2184 3.83824 19.7794 3.55431C21.2523 3.37921 22.7408 3.37921 24.2138 3.55431C25.9078 3.76442 27.5644 4.20866 29.1362 4.87431H29.1844C32.5543 6.31211 35.4284 8.70681 37.4508 11.7619C39.4732 14.8168 40.5551 18.398 40.5625 22.0618C40.5648 23.9558 40.2749 25.8387 39.7031 27.6443C39.6755 27.731 39.6653 27.8223 39.6732 27.9129C39.6811 28.0035 39.7069 28.0916 39.7491 28.1722C39.7913 28.2528 39.8491 28.3241 39.9191 28.3822C39.9891 28.4403 40.0699 28.4839 40.1569 28.5105C40.2235 28.5325 40.293 28.5441 40.3631 28.5449C40.5148 28.5518 40.6645 28.5085 40.7888 28.4214C40.9132 28.3343 41.0052 28.2086 41.0506 28.0637C42.5283 23.3053 42.1817 18.1672 40.0783 13.6504C37.975 9.13354 34.2655 5.56142 29.6725 3.62994H29.6244C26.4688 2.30818 23.0287 1.81133 19.6281 2.18619C18.2072 2.33743 16.8075 2.64641 15.455 3.10744C14.1946 3.5278 12.9806 4.07607 11.8319 4.74369C9.70055 5.97583 7.80931 7.58289 6.24937 9.4874C5.51605 10.3915 4.86275 11.3577 4.29687 12.3749C3.74659 13.3676 3.28641 14.4076 2.92187 15.4824C2.53489 16.542 2.2472 17.6352 2.0625 18.748C2.03478 18.9276 2.07923 19.1108 2.18615 19.2576C2.29307 19.4045 2.45376 19.503 2.63312 19.5318Z" fill="#003092"/>
<mask id="path-11-inside-1_1183_2294" fill="white">
<path d="M36.8294 35.8532C37.9892 34.4526 38.5657 32.6594 38.4396 30.8454C38.3134 29.0314 37.4942 27.3353 36.1517 26.1088C34.8092 24.8822 33.0462 24.2192 31.2282 24.257C29.4101 24.2948 27.6763 25.0306 26.3859 26.3119C25.0956 27.5931 24.3475 29.3218 24.2969 31.1395C24.2462 32.9572 24.8968 34.7248 26.1139 36.076C27.3309 37.4271 29.021 38.2583 30.8342 38.3972C32.6473 38.5363 34.4444 37.9724 35.8531 36.8225L40.7619 41.7382C40.8913 41.8676 41.0669 41.9403 41.25 41.9403C41.4331 41.9403 41.6087 41.8676 41.7381 41.7382C41.8676 41.6087 41.9403 41.4331 41.9403 41.25C41.9403 41.0669 41.8676 40.8914 41.7381 40.7619L36.8294 35.8532ZM35.3925 35.3925C34.6004 36.1851 33.591 36.7249 32.492 36.9437C31.393 37.1626 30.2538 37.0506 29.2185 36.6219C28.1832 36.1932 27.2982 35.4671 26.6756 34.5354C26.053 33.6038 25.7207 32.5084 25.7207 31.3878C25.7207 30.2673 26.053 29.1719 26.6756 28.2402C27.2982 27.3086 28.1832 26.5824 29.2185 26.1538C30.2538 25.725 31.393 25.613 32.492 25.8319C33.591 26.0507 34.6004 26.5905 35.3925 27.3832C36.4543 28.4454 37.0507 29.8859 37.0507 31.3878C37.0507 32.8898 36.4543 34.3302 35.3925 35.3925Z"/>
</mask>
<path d="M36.8294 35.8532C37.9892 34.4526 38.5657 32.6594 38.4396 30.8454C38.3134 29.0314 37.4942 27.3353 36.1517 26.1088C34.8092 24.8822 33.0462 24.2192 31.2282 24.257C29.4101 24.2948 27.6763 25.0306 26.3859 26.3119C25.0956 27.5931 24.3475 29.3218 24.2969 31.1395C24.2462 32.9572 24.8968 34.7248 26.1139 36.076C27.3309 37.4271 29.021 38.2583 30.8342 38.3972C32.6473 38.5363 34.4444 37.9724 35.8531 36.8225L40.7619 41.7382C40.8913 41.8676 41.0669 41.9403 41.25 41.9403C41.4331 41.9403 41.6087 41.8676 41.7381 41.7382C41.8676 41.6087 41.9403 41.4331 41.9403 41.25C41.9403 41.0669 41.8676 40.8914 41.7381 40.7619L36.8294 35.8532ZM35.3925 35.3925C34.6004 36.1851 33.591 36.7249 32.492 36.9437C31.393 37.1626 30.2538 37.0506 29.2185 36.6219C28.1832 36.1932 27.2982 35.4671 26.6756 34.5354C26.053 33.6038 25.7207 32.5084 25.7207 31.3878C25.7207 30.2673 26.053 29.1719 26.6756 28.2402C27.2982 27.3086 28.1832 26.5824 29.2185 26.1538C30.2538 25.725 31.393 25.613 32.492 25.8319C33.591 26.0507 34.6004 26.5905 35.3925 27.3832C36.4543 28.4454 37.0507 29.8859 37.0507 31.3878C37.0507 32.8898 36.4543 34.3302 35.3925 35.3925Z" fill="#003092"/>
<path d="M36.8294 35.8532L35.289 34.5776L34.1277 35.9799L35.4152 37.2674L36.8294 35.8532ZM36.1517 26.1088L34.8026 27.5853L34.8027 27.5854L36.1517 26.1088ZM31.2282 24.257L31.2698 26.2566H31.2698L31.2282 24.257ZM26.3859 26.3119L27.7951 27.7311L27.7951 27.7311L26.3859 26.3119ZM24.2969 31.1395L22.2977 31.0837L22.2977 31.0837L24.2969 31.1395ZM26.1139 36.076L27.5999 34.7374L27.5999 34.7374L26.1139 36.076ZM30.8342 38.3972L30.9871 36.4031L30.987 36.4031L30.8342 38.3972ZM35.8531 36.8225L37.2683 35.4093L35.99 34.1292L34.5885 35.2731L35.8531 36.8225ZM40.7619 41.7382L39.3467 43.1514L39.3477 43.1524L40.7619 41.7382ZM41.7381 40.7619L40.3239 42.1761L41.7381 40.7619ZM35.3925 35.3925L33.9779 33.9787L33.9779 33.9787L35.3925 35.3925ZM32.492 36.9437L32.8826 38.9052L32.8826 38.9052L32.492 36.9437ZM29.2185 36.6219L28.4533 38.4697L28.4534 38.4698L29.2185 36.6219ZM26.6756 34.5354L28.3385 33.4242L28.3385 33.4242L26.6756 34.5354ZM26.6756 28.2402L25.0128 27.1289L25.0127 27.129L26.6756 28.2402ZM29.2185 26.1538L29.9836 28.0016L29.9837 28.0016L29.2185 26.1538ZM32.492 25.8319L32.8826 23.8704L32.8826 23.8704L32.492 25.8319ZM35.3925 27.3832L33.9779 28.7969L33.978 28.7971L35.3925 27.3832ZM38.3698 37.1288C39.8572 35.3326 40.5965 33.033 40.4348 30.7067L36.4444 30.9842C36.5349 32.2859 36.1212 33.5726 35.289 34.5776L38.3698 37.1288ZM40.4348 30.7067C40.273 28.3803 39.2224 26.2052 37.5006 24.6322L34.8027 27.5854C35.766 28.4655 36.3539 29.6825 36.4444 30.9842L40.4348 30.7067ZM37.5007 24.6323C35.779 23.0592 33.5181 22.209 31.1866 22.2575L31.2698 26.2566C32.5743 26.2295 33.8394 26.7052 34.8026 27.5853L37.5007 24.6323ZM31.1866 22.2575C28.855 22.306 26.6315 23.2495 24.9767 24.8927L27.7951 27.7311C28.7211 26.8117 29.9652 26.2837 31.2698 26.2566L31.1866 22.2575ZM24.9767 24.8927C23.3219 26.5358 22.3626 28.7527 22.2977 31.0837L26.2961 31.1952C26.3325 29.8909 26.8692 28.6504 27.7951 27.7311L24.9767 24.8927ZM22.2977 31.0837C22.2327 33.4149 23.067 35.6817 24.6278 37.4145L27.5999 34.7374C26.7266 33.7678 26.2597 32.4995 26.2961 31.1952L22.2977 31.0837ZM24.6278 37.4145C26.1886 39.1472 28.3561 40.2132 30.6814 40.3914L30.987 36.4031C29.686 36.3034 28.4732 35.707 27.5999 34.7374L24.6278 37.4145ZM30.6813 40.3914C33.0066 40.5697 35.3112 39.8465 37.1178 38.3719L34.5885 35.2731C33.5776 36.0982 32.2881 36.5028 30.9871 36.4031L30.6813 40.3914ZM34.4379 38.2358L39.3467 43.1514L42.1771 40.3249L37.2683 35.4093L34.4379 38.2358ZM39.3477 43.1524C39.8522 43.6569 40.5364 43.9403 41.25 43.9403V39.9403C41.5974 39.9403 41.9305 40.0784 42.1761 40.3239L39.3477 43.1524ZM41.25 43.9403C41.9636 43.9403 42.6479 43.6569 43.1524 43.1524L40.3239 40.3239C40.5695 40.0784 40.9026 39.9403 41.25 39.9403V43.9403ZM43.1524 43.1524C43.6568 42.6479 43.9403 41.9636 43.9403 41.25H39.9403C39.9403 40.9026 40.0783 40.5695 40.3239 40.3239L43.1524 43.1524ZM43.9403 41.25C43.9403 40.5365 43.6568 39.8522 43.1524 39.3477L40.3239 42.1761C40.0783 41.9305 39.9403 41.5974 39.9403 41.25H43.9403ZM43.1524 39.3477L38.2436 34.4389L35.4152 37.2674L40.3239 42.1761L43.1524 39.3477ZM33.9779 33.9787C33.4655 34.4914 32.8124 34.8407 32.1014 34.9822L32.8826 38.9052C34.3695 38.6091 35.7353 37.8787 36.8071 36.8064L33.9779 33.9787ZM32.1015 34.9822C31.3904 35.1238 30.6534 35.0514 29.9836 34.774L28.4534 38.4698C29.8542 39.0498 31.3956 39.2013 32.8826 38.9052L32.1015 34.9822ZM29.9837 34.7741C29.3138 34.4967 28.7413 34.0269 28.3385 33.4242L25.0127 35.6466C25.8552 36.9073 27.0526 37.8897 28.4533 38.4697L29.9837 34.7741ZM28.3385 33.4242C27.9357 32.8214 27.7207 32.1128 27.7207 31.3878H23.7207C23.7207 32.904 24.1704 34.3861 25.0128 35.6467L28.3385 33.4242ZM27.7207 31.3878C27.7207 30.6629 27.9357 29.9542 28.3385 29.3514L25.0127 27.129C24.1704 28.3896 23.7207 29.8717 23.7207 31.3878H27.7207ZM28.3385 29.3515C28.7413 28.7487 29.3138 28.2789 29.9836 28.0016L28.4534 24.3059C27.0525 24.8859 25.8552 25.8684 25.0128 27.1289L28.3385 29.3515ZM29.9837 28.0016C30.6534 27.7243 31.3904 27.6518 32.1015 27.7934L32.8826 23.8704C31.3956 23.5743 29.8542 23.7258 28.4533 24.3059L29.9837 28.0016ZM32.1014 27.7934C32.8124 27.9349 33.4654 28.2842 33.9779 28.7969L36.8072 25.9694C35.7353 24.8969 34.3696 24.1665 32.8826 23.8704L32.1014 27.7934ZM33.978 28.7971C34.6648 29.4842 35.0507 30.4161 35.0507 31.3878H39.0507C39.0507 29.3556 38.2437 27.4066 36.807 25.9693L33.978 28.7971ZM35.0507 31.3878C35.0507 32.3595 34.6648 33.2914 33.9779 33.9787L36.8071 36.8064C38.2437 35.369 39.0507 33.42 39.0507 31.3878H35.0507Z" fill="#003092" mask="url(#path-11-inside-1_1183_2294)"/>
</svg>
